<svg width="208" height="208" viewBox="0 0 208 208" fill="none" xmlns="http://www.w3.org/2000/svg">
<g filter="url(#filter0_d_2_796)">
<rect x="40" y="26" width="128" height="128" rx="64" fill="#FF5A1F"/>
<path d="M120.004 88.2544C118.726 87.9014 117.448 87.7054 117.408 87.7054C117.368 87.7054 117.368 87.7054 117.328 87.7054H113.374L112.056 85.6662H113.614C113.973 85.6662 114.253 85.3917 114.253 85.0388V83.1565C114.253 82.8036 113.973 82.5291 113.614 82.5291H111.696C111.616 82.5291 111.537 82.5291 111.457 82.5683C111.097 82.6859 110.738 82.882 110.418 83.1173L108.381 79.9017H109.779C110.139 79.9017 110.418 79.6272 110.418 79.2743V77.4704C110.418 77.1175 110.139 76.843 109.779 76.843H107.942C107.862 76.843 107.782 76.843 107.702 76.8822C107.383 76.9999 107.023 77.1567 106.744 77.392L104.986 74.647C104.906 74.5294 104.826 74.4509 104.667 74.4117L101.192 73.0392C100.952 72.9608 100.712 73 100.513 73.1569C100.313 73.3137 100.273 73.549 100.313 73.7843L104.467 87.6661H92.8836C92.8437 87.6661 92.8037 87.6661 92.7638 87.6661C92.7238 87.6661 92.0049 87.823 91.1661 88.0583L88.6497 83.2349C88.5299 83.0389 88.3302 82.882 88.0905 82.882H85.6541C85.4543 82.882 85.2546 82.9604 85.1348 83.1173C85.015 83.2741 84.975 83.4702 85.015 83.6663L86.5328 89.8229H85.694C85.3345 89.8229 85.0549 90.0974 85.0549 90.4504C85.0549 90.8033 85.3345 91.0778 85.694 91.0778H86.5328L85.0549 97.156C85.015 97.3521 85.0549 97.5481 85.1747 97.705C85.2946 97.8618 85.4943 97.9403 85.694 97.9403H88.1305C88.3701 97.9403 88.6098 97.8226 88.6897 97.5873L91.1661 92.8424C92.0847 93.0385 92.8037 93.1561 92.8437 93.1561C92.8836 93.1561 92.9235 93.1561 92.9235 93.1561H104.507L100.353 106.999C100.273 107.234 100.353 107.469 100.552 107.626C100.672 107.744 100.832 107.783 100.992 107.783C101.072 107.783 101.152 107.783 101.232 107.744L104.706 106.371C104.826 106.332 104.946 106.254 105.026 106.136L106.783 103.391C107.063 103.587 107.423 103.783 107.742 103.901C107.822 103.94 107.902 103.94 107.982 103.94H109.819C110.179 103.94 110.458 103.666 110.458 103.313V101.509C110.458 101.156 110.179 100.881 109.819 100.881H108.421L110.458 97.6658C110.778 97.9011 111.137 98.0579 111.497 98.2148C111.577 98.254 111.656 98.254 111.736 98.254H113.654C114.013 98.254 114.293 97.9795 114.293 97.6266V95.7443C114.293 95.3913 114.013 95.1168 113.654 95.1168H112.096L113.374 93.1169H117.328C117.368 93.1169 117.408 93.1169 117.408 93.1169C117.448 93.1169 118.726 92.9208 120.004 92.5679C122.041 91.9797 123 91.3131 123 90.4111C123 89.2347 121.322 88.6073 120.004 88.2544ZM119.525 91.5091C118.487 91.7836 117.488 91.9405 117.288 91.9797H112.975H111.896H110.818H107.582H106.304H105.026H93.0034C92.5641 91.9013 92.1646 91.8228 91.7652 91.7444L92.0848 91.117H92.8037C93.1632 91.117 93.4428 90.8425 93.4428 90.4896C93.4428 90.1366 93.1632 89.8621 92.8037 89.8621H92.0848L91.7652 89.2347C92.3244 89.0778 92.8037 88.9602 92.9635 88.9602H105.026H106.304H107.582H110.738H111.816H112.895H117.248C117.488 88.9994 118.566 89.1563 119.645 89.47C121.322 89.9406 121.682 90.3719 121.682 90.4896C121.682 90.5288 121.442 90.9994 119.525 91.5091ZM109.18 102.254V102.803H108.142C107.982 102.724 107.782 102.646 107.662 102.568C107.782 102.489 107.982 102.371 108.181 102.293H109.18V102.254ZM104.267 105.038L111.257 93.2346H111.856L104.267 105.038ZM110.219 93.2346L102.709 105.901L101.99 106.175L105.905 93.2346H110.219ZM89.9279 92.5679L87.771 96.7246H86.5727L87.8908 91.4307L87.9707 91.117H88.49H89.7282H90.7267L90.5669 91.4307L90.2874 91.9797L89.9279 92.5679ZM87.771 84.2153L90.0078 88.5288L90.2874 89.0779L90.5669 89.6269L90.6868 89.8621H89.9678H88.6497H87.9308L87.8908 89.7053L86.5328 84.2153H87.771ZM104.067 75.5489L111.896 87.7054H111.257L104.067 75.5489ZM109.18 78.1371V78.6861H108.142C107.942 78.6076 107.782 78.49 107.622 78.4116C107.742 78.3331 107.942 78.2547 108.102 78.1763H109.18V78.1371ZM102.669 74.9999L110.219 87.7054H105.945L102.03 74.7254L102.669 74.9999ZM112.975 83.7839V84.4114H111.856C111.656 84.2937 111.457 84.1761 111.297 84.0976C111.457 84.0192 111.656 83.9016 111.856 83.8231H112.975V83.7839ZM111.856 96.4893H112.975V97.1168H111.856C111.656 97.0383 111.457 96.9207 111.297 96.8423C111.457 96.7246 111.656 96.607 111.856 96.4893Z" fill="white"/>
</g>
<defs>
<filter id="filter0_d_2_796" x="0" y="0" width="208" height="208" filterUnits="userSpaceOnUse" color-interpolation-filters="sRGB">
<feFlood flood-opacity="0" result="BackgroundImageFix"/>
<feColorMatrix in="SourceAlpha" type="matrix" values="0 0 0 0 0 0 0 0 0 0 0 0 0 0 0 0 0 0 127 0" result="hardAlpha"/>
<feOffset dy="14"/>
<feGaussianBlur stdDeviation="20"/>
<feComposite in2="hardAlpha" operator="out"/>
<feColorMatrix type="matrix" values="0 0 0 0 0.705882 0 0 0 0 0.203922 0 0 0 0 0.0117647 0 0 0 1 0"/>
<feBlend mode="normal" in2="BackgroundImageFix" result="effect1_dropShadow_2_796"/>
<feBlend mode="normal" in="SourceGraphic" in2="effect1_dropShadow_2_796" result="shape"/>
</filter>
</defs>
</svg>
