<svg width="208" height="208" viewBox="0 0 208 208" fill="none" xmlns="http://www.w3.org/2000/svg">
<g filter="url(#filter0_d_2_773)">
<rect x="40" y="26" width="128" height="128" rx="64" fill="#FF5A1F"/>
<path d="M110.937 98.3357L108.245 101.165L107.416 100.034C107.157 99.6734 106.64 99.5705 106.277 99.8792C105.915 100.136 105.811 100.651 106.122 101.011L107.52 102.915C107.675 103.121 107.882 103.223 108.141 103.223H108.193C108.4 103.223 108.659 103.12 108.814 102.966L112.231 99.4161C112.541 99.1074 112.541 98.5415 112.231 98.2328C111.817 98.027 111.247 98.027 110.937 98.3357Z" fill="white"/>
<path d="M100.79 88.6631L98.0975 91.4929L97.2692 90.361C97.0104 90.0008 96.4927 89.8979 96.1303 90.2066C95.7679 90.4639 95.6644 90.9784 95.975 91.3385L97.3728 93.2421C97.5281 93.4479 97.7351 93.5508 97.994 93.5508H98.0458C98.2528 93.5508 98.5117 93.4479 98.667 93.2936L102.084 89.7436C102.394 89.4349 102.394 88.8689 102.084 88.5602C101.618 88.303 101.1 88.303 100.79 88.6631Z" fill="white"/>
<path d="M120.151 78.5276H117.511V76.058C117.511 74.9261 116.424 74 115.078 74C113.732 74 112.645 74.9261 112.645 76.058V78.5276H106.484V76.058C106.484 74.9261 105.397 74 104.051 74C102.705 74 101.618 74.9261 101.618 76.058V78.5276H95.4056V76.058C95.4056 74.9261 94.3184 74 92.9724 74C91.6264 74 90.5393 74.9261 90.5393 76.058V78.5276H87.8991C86.2942 78.5276 85 79.8138 85 81.4087V103.841C85 105.436 86.2942 106.722 87.8991 106.722H120.099C121.704 106.722 122.999 105.436 122.999 103.841V81.4087C123.05 79.8653 121.756 78.5276 120.151 78.5276ZM86.6566 87.2226H93.9561V95.2487H86.6566V87.2226ZM95.1467 87.2226H103.43V95.2487H95.1467V87.2226ZM104.62 87.2226H112.904V95.2487H104.62V87.2226ZM114.094 87.2226H121.394V95.2487H114.094V87.2226ZM114.301 78.5276V76.058C114.301 75.9036 114.612 75.6464 115.078 75.6464C115.544 75.6464 115.854 75.9036 115.854 76.058V78.5276V80.174V81.9232C115.854 82.0776 115.544 82.3348 115.078 82.3348C114.612 82.3348 114.301 82.0776 114.301 81.9232V80.174V78.5276ZM103.274 78.5276V76.058C103.274 75.9036 103.585 75.6464 104.051 75.6464C104.517 75.6464 104.828 75.9036 104.828 76.058V78.5276V80.174V81.9232C104.828 82.0776 104.517 82.3348 104.051 82.3348C103.585 82.3348 103.274 82.0776 103.274 81.9232V80.174V78.5276ZM92.1959 78.5276V76.058C92.1959 75.9036 92.5065 75.6464 92.9724 75.6464C93.4384 75.6464 93.749 75.9036 93.749 76.058V78.5276V80.174V81.9232C93.749 82.0776 93.4384 82.3348 92.9724 82.3348C92.5065 82.3348 92.1959 82.0776 92.1959 81.9232V80.174V78.5276ZM86.6566 81.4602C86.6566 80.7913 87.2261 80.2254 87.8991 80.2254H90.5393V81.9747C90.5393 83.1066 91.6264 84.0327 92.9724 84.0327C94.3184 84.0327 95.4056 83.1066 95.4056 81.9747V80.174H101.618V81.9232C101.618 83.0551 102.705 83.9812 104.051 83.9812C105.397 83.9812 106.484 83.0551 106.484 81.9232V80.174H112.645V81.9232C112.645 83.0551 113.732 83.9812 115.078 83.9812C116.424 83.9812 117.511 83.0551 117.511 81.9232V80.174H120.151C120.824 80.174 121.394 80.7399 121.394 81.4087V85.5247H86.6566V81.4602ZM86.6566 103.892V96.432H93.9561V105.127H87.8991C87.2261 105.127 86.6566 104.561 86.6566 103.892ZM95.1467 96.432H103.43V105.127H95.1467V96.432ZM104.62 96.432H112.904V105.127H104.62V96.432ZM121.394 103.892C121.394 104.561 120.824 105.127 120.151 105.127H114.146V96.432H121.445V103.892H121.394Z" fill="white"/>
</g>
<defs>
<filter id="filter0_d_2_773" x="0" y="0" width="208" height="208" filterUnits="userSpaceOnUse" color-interpolation-filters="sRGB">
<feFlood flood-opacity="0" result="BackgroundImageFix"/>
<feColorMatrix in="SourceAlpha" type="matrix" values="0 0 0 0 0 0 0 0 0 0 0 0 0 0 0 0 0 0 127 0" result="hardAlpha"/>
<feOffset dy="14"/>
<feGaussianBlur stdDeviation="20"/>
<feComposite in2="hardAlpha" operator="out"/>
<feColorMatrix type="matrix" values="0 0 0 0 0.705882 0 0 0 0 0.203922 0 0 0 0 0.0117647 0 0 0 1 0"/>
<feBlend mode="normal" in2="BackgroundImageFix" result="effect1_dropShadow_2_773"/>
<feBlend mode="normal" in="SourceGraphic" in2="effect1_dropShadow_2_773" result="shape"/>
</filter>
</defs>
</svg>
