<svg width="30" height="29" viewBox="0 0 30 29" fill="none" xmlns="http://www.w3.org/2000/svg">
<path d="M23.9241 15.5999C23.6594 15.5999 23.3827 15.5157 23.118 15.4556C22.5819 15.3374 22.0552 15.1806 21.5418 14.9863C20.9837 14.7833 20.3701 14.7938 19.8193 15.0159C19.2684 15.238 18.8192 15.656 18.558 16.1895L18.2933 16.7309C17.1214 16.079 16.0445 15.2693 15.0928 14.3246C14.1481 13.3729 13.3384 12.296 12.6865 11.1242L13.1918 10.7873C13.7253 10.5261 14.1433 10.0768 14.3654 9.52598C14.5875 8.97512 14.5981 8.36158 14.395 7.80341C14.204 7.28897 14.0472 6.76243 13.9258 6.22726C13.8656 5.96257 13.8175 5.68584 13.7814 5.40911C13.6353 4.56162 13.1914 3.79415 12.5296 3.2449C11.8679 2.69565 11.0318 2.40072 10.1719 2.41322H6.56239C6.04387 2.40835 5.53038 2.51527 5.05688 2.72669C4.58339 2.9381 4.161 3.24906 3.81849 3.63839C3.47597 4.02772 3.22136 4.48627 3.07199 4.98284C2.92262 5.47942 2.882 6.00234 2.95289 6.51602C3.59386 11.5566 5.89587 16.2399 9.4953 19.8262C13.0947 23.4126 17.7864 25.6975 22.8292 26.3202H23.2864C24.1737 26.3215 25.0303 25.9959 25.6928 25.4058C26.0734 25.0653 26.3775 24.648 26.5849 24.1813C26.7923 23.7147 26.8983 23.2093 26.8959 22.6986V19.0891C26.8812 18.2534 26.5768 17.4487 26.0349 16.8123C25.4929 16.176 24.7468 15.7475 23.9241 15.5999V15.5999ZM24.5257 22.8189C24.5255 22.9898 24.4889 23.1586 24.4183 23.3142C24.3478 23.4698 24.2449 23.6086 24.1166 23.7213C23.9822 23.8374 23.825 23.9241 23.6551 23.9759C23.4852 24.0277 23.3063 24.0434 23.13 24.0221C18.624 23.4444 14.4386 21.3829 11.2339 18.163C8.02929 14.9431 5.98777 10.748 5.43142 6.2393C5.41227 6.06305 5.42905 5.88476 5.48075 5.71519C5.53245 5.54561 5.61799 5.38828 5.73221 5.2527C5.84496 5.12436 5.98374 5.0215 6.13933 4.95096C6.29492 4.88043 6.46375 4.84384 6.63458 4.84362H10.2441C10.5239 4.8374 10.7971 4.9289 11.0167 5.10239C11.2363 5.27587 11.3885 5.52049 11.4473 5.79412C11.4954 6.12299 11.5555 6.44784 11.6277 6.76869C11.7667 7.40293 11.9517 8.02622 12.1812 8.6336L10.4967 9.41566C10.3527 9.48174 10.2232 9.57561 10.1155 9.6919C10.0079 9.80818 9.92428 9.94459 9.8695 10.0933C9.81472 10.242 9.78985 10.4 9.79632 10.5583C9.80279 10.7167 9.84047 10.8721 9.9072 11.0159C11.6388 14.7249 14.6203 17.7064 18.3294 19.438C18.6223 19.5584 18.9509 19.5584 19.2438 19.438C19.3938 19.3844 19.5317 19.3014 19.6494 19.194C19.7672 19.0866 19.8624 18.9569 19.9296 18.8124L20.6755 17.128C21.2975 17.3504 21.9324 17.5352 22.5765 17.6814C22.8974 17.7536 23.2222 17.8138 23.5511 17.8619C23.8248 17.9206 24.0694 18.0729 24.2429 18.2925C24.4163 18.5121 24.5078 18.7853 24.5016 19.0651L24.5257 22.8189Z" fill="white"/>
</svg>
