<svg width="27" height="27" viewBox="0 0 27 27" fill="none" xmlns="http://www.w3.org/2000/svg">
<path d="M6.32812 13.5C6.32812 12.1623 6.69669 10.9092 7.33699 9.83617V5.28477H2.78559C0.979172 7.63082 0 10.49 0 13.5C0 16.51 0.979172 19.3692 2.78559 21.7152H7.33699V17.1638C6.69669 16.0908 6.32812 14.8377 6.32812 13.5Z" fill="#FBBD00"/>
<path d="M13.5 20.6719L10.3359 23.8359L13.5 27C16.51 27 19.3692 26.0208 21.7152 24.2144V19.6679H17.1687C16.0863 20.3105 14.8279 20.6719 13.5 20.6719Z" fill="#0F9D58"/>
<path d="M7.33704 17.1638L2.78564 21.7152C3.14329 22.1797 3.53273 22.6245 3.95413 23.046C6.50395 25.5957 9.89408 27 13.5001 27V20.6719C10.8832 20.6719 8.58959 19.2628 7.33704 17.1638Z" fill="#31AA52"/>
<path d="M27 13.5C27 12.6787 26.9256 11.8558 26.7789 11.0543L26.6602 10.4058H13.5V16.7339H19.9047C19.2827 17.9711 18.3265 18.9805 17.1686 19.6679L21.7152 24.2145C22.1797 23.8568 22.6245 23.4674 23.0459 23.046C25.5957 20.4961 27 17.106 27 13.5Z" fill="#3C79E6"/>
<path d="M18.5713 8.42869L19.1306 8.98799L23.6053 4.51338L23.046 3.95408C20.4962 1.40426 17.106 0 13.5 0L10.3359 3.16406L13.5 6.32812C15.4156 6.32812 17.2167 7.07411 18.5713 8.42869Z" fill="#CF2D48"/>
<path d="M13.5 6.32813V0C9.89402 0 6.50388 1.40426 3.95401 3.95402C3.53261 4.37542 3.14317 4.82024 2.78552 5.28478L7.33692 9.83617C8.58952 7.73719 10.8831 6.32813 13.5 6.32813Z" fill="#EB4132"/>
</svg>
