<svg width="663" height="701" viewBox="0 0 663 701" fill="none" xmlns="http://www.w3.org/2000/svg">
<g clip-path="url(#clip0_2_483)">
<path d="M331.5 250.214H331.5C343.579 250.214 355.54 252.987 366.699 258.376C377.858 263.764 387.998 271.663 396.539 281.619C405.08 291.576 411.855 303.397 416.478 316.406C421.1 329.415 423.479 343.358 423.479 357.439V614.344H239.521V357.439C239.521 343.358 241.9 329.415 246.522 316.406C251.145 303.397 257.92 291.576 266.461 281.619C275.002 271.663 285.142 263.764 296.301 258.376C307.461 252.987 319.421 250.214 331.5 250.214Z" fill="#E6E6E6"/>
<path d="M299.589 379.128H283.07V443.026H299.589V379.128Z" fill="white"/>
<path d="M358.906 448.278H304.094V506.048H358.906V448.278Z" fill="white"/>
<path d="M358.906 379.128H304.094V443.026H358.906V379.128Z" fill="white"/>
<path d="M363.411 373.876H379.93V372.563C379.936 364.522 378.465 356.574 375.615 349.252C372.766 341.93 368.605 335.404 363.411 330.113V373.876Z" fill="white"/>
<path d="M304.094 373.876H358.906V326.019C350.846 319.547 341.287 316.089 331.5 316.105C321.713 316.089 312.154 319.547 304.094 326.019V373.876Z" fill="white"/>
<path d="M299.589 448.278H283.07V492.043C283.07 495.757 284.336 499.32 286.589 501.946C288.842 504.573 291.897 506.048 295.084 506.048H299.589V448.278Z" fill="white"/>
<path d="M363.411 448.278V506.048H367.916C371.102 506.048 374.158 504.573 376.411 501.946C378.664 499.32 379.93 495.757 379.93 492.043V448.278H363.411Z" fill="white"/>
<path d="M299.589 373.876V330.113C294.395 335.404 290.234 341.93 287.385 349.252C284.535 356.574 283.064 364.522 283.07 372.563V373.876H299.589Z" fill="white"/>
<path d="M379.93 379.128H363.411V443.026H379.93V379.128Z" fill="white"/>
<path d="M410.339 464.033C415.73 464.033 420.1 458.938 420.1 452.654C420.1 446.369 415.73 441.275 410.339 441.275C404.948 441.275 400.578 446.369 400.578 452.654C400.578 458.938 404.948 464.033 410.339 464.033Z" fill="#3F3D56"/>
<path d="M102.609 343.445H89.6438V393.597H102.609V343.445Z" fill="#F2F2F2"/>
<path d="M149.165 343.445H106.145V393.597H149.165V343.445Z" fill="#F2F2F2"/>
<path d="M165.667 343.445H152.701V393.597H165.667V343.445Z" fill="#F2F2F2"/>
<path d="M152.701 339.323H165.667V338.292C165.671 331.981 164.517 325.742 162.28 319.995C160.044 314.249 156.778 309.127 152.701 304.974V339.323Z" fill="#F2F2F2"/>
<path d="M149.165 397.719H106.145V443.061H149.165V397.719Z" fill="#F2F2F2"/>
<path d="M102.609 397.719H89.6438V432.069C89.6438 434.984 90.6373 437.78 92.4056 439.842C94.1739 441.903 96.5722 443.061 99.073 443.061H102.609L102.609 397.719Z" fill="#F2F2F2"/>
<path d="M152.701 397.719V443.061H156.237C157.476 443.061 158.702 442.777 159.846 442.224C160.99 441.672 162.029 440.862 162.905 439.842C163.78 438.821 164.475 437.609 164.949 436.276C165.423 434.942 165.667 433.512 165.667 432.069V397.719H152.701Z" fill="#F2F2F2"/>
<path d="M102.609 339.323V304.974C98.5327 309.127 95.2666 314.249 93.0302 319.996C90.7939 325.742 89.6392 331.981 89.6438 338.292V339.323H102.609Z" fill="#F2F2F2"/>
<path d="M106.145 339.323H149.165V301.761C142.839 296.681 135.337 293.967 127.655 293.979C119.974 293.967 112.471 296.681 106.145 301.761V339.323Z" fill="#F2F2F2"/>
<path d="M182.599 448.541H72.985C72.2819 448.54 71.6078 448.214 71.1106 447.635C70.6134 447.055 70.3338 446.269 70.333 445.449V437.205C70.3338 436.386 70.6134 435.6 71.1106 435.02C71.6078 434.441 72.2819 434.115 72.985 434.114H182.599C183.302 434.115 183.976 434.441 184.474 435.02C184.971 435.6 185.25 436.386 185.251 437.205V445.449C185.25 446.269 184.971 447.055 184.474 447.635C183.976 448.214 183.302 448.54 182.599 448.541Z" fill="#E6E6E6"/>
<path d="M510.32 343.445H497.355V393.597H510.32V343.445Z" fill="#F2F2F2"/>
<path d="M556.877 343.445H513.856V393.597H556.877V343.445Z" fill="#F2F2F2"/>
<path d="M573.378 343.445H560.413V393.597H573.378V343.445Z" fill="#F2F2F2"/>
<path d="M560.413 339.323H573.378V338.292C573.382 331.981 572.228 325.742 569.991 319.995C567.755 314.249 564.489 309.127 560.413 304.974V339.323Z" fill="#F2F2F2"/>
<path d="M556.877 397.719H513.856V443.061H556.877V397.719Z" fill="#F2F2F2"/>
<path d="M510.32 397.719H497.355V432.069C497.355 434.984 498.348 437.78 500.117 439.842C501.885 441.903 504.283 443.061 506.784 443.061H510.32L510.32 397.719Z" fill="#F2F2F2"/>
<path d="M560.413 397.719V443.061H563.949C565.187 443.061 566.413 442.777 567.557 442.224C568.701 441.672 569.74 440.862 570.616 439.842C571.492 438.821 572.186 437.609 572.66 436.276C573.134 434.942 573.378 433.512 573.378 432.069V397.719H560.413Z" fill="#F2F2F2"/>
<path d="M510.32 339.323V304.974C506.244 309.127 502.978 314.249 500.741 319.996C498.505 325.742 497.35 331.981 497.355 338.292V339.323H510.32Z" fill="#F2F2F2"/>
<path d="M513.856 339.323H556.877V301.761C550.551 296.681 543.048 293.967 535.366 293.979C527.685 293.967 520.182 296.681 513.856 301.761V339.323Z" fill="#F2F2F2"/>
<path d="M590.311 448.541H480.696C479.993 448.54 479.319 448.214 478.822 447.635C478.325 447.055 478.045 446.269 478.044 445.449V437.205C478.045 436.386 478.325 435.6 478.822 435.02C479.319 434.441 479.993 434.115 480.696 434.114H590.311C591.014 434.115 591.688 434.441 592.185 435.02C592.682 435.6 592.962 436.386 592.963 437.205V445.449C592.962 446.269 592.682 447.055 592.185 447.635C591.688 448.214 591.014 448.54 590.311 448.541Z" fill="#E6E6E6"/>
<path d="M622.83 615.219H40.1704C33.6011 615.211 27.303 612.165 22.6578 606.75C18.0127 601.334 15.3998 593.992 15.3923 586.334V146.051C15.3998 138.393 18.0127 131.051 22.6578 125.636C27.303 120.221 33.6011 117.175 40.1704 117.166H622.83C629.399 117.175 635.697 120.221 640.342 125.636C644.987 131.051 647.6 138.393 647.608 146.051V586.334C647.6 593.992 644.987 601.334 640.342 606.75C635.697 612.165 629.399 615.211 622.83 615.219ZM40.1704 118.917C33.9992 118.925 28.0829 121.786 23.7192 126.873C19.3556 131.96 16.901 138.857 16.894 146.051V586.334C16.901 593.528 19.3556 600.425 23.7192 605.512C28.0829 610.599 33.9992 613.461 40.1704 613.469H622.83C629.001 613.461 634.917 610.599 639.281 605.512C643.644 600.425 646.099 593.528 646.106 586.334V146.051C646.099 138.857 643.644 131.96 639.281 126.873C634.917 121.786 629.001 118.925 622.83 118.917H40.1704Z" fill="#CCCCCC"/>
<path d="M24.8143 174.735C18.5768 174.729 12.5694 171.988 7.98669 167.055C3.40394 162.122 0.581428 155.359 0.0803159 148.111C-0.420797 140.863 1.43619 133.66 5.28208 127.936C9.12797 122.211 14.6811 118.383 20.8374 117.213L325.348 0.576252C329.305 -0.186304 333.342 -0.192079 337.3 0.559156L642.215 117.232C648.708 118.481 654.51 122.683 658.346 128.916C662.183 135.149 663.74 142.903 662.675 150.473C661.61 158.043 658.011 164.811 652.668 169.289C647.325 173.768 640.676 175.59 634.181 174.357C630.896 173.81 334.2 124.423 331.494 124.293C328.799 124.423 31.8136 173.858 28.814 174.358C27.4917 174.609 26.1541 174.735 24.8143 174.735Z" fill="#CCCCCC"/>
<path d="M462.099 545.675C462.728 544.725 463.169 543.625 463.393 542.454C463.618 541.283 463.619 540.069 463.397 538.897C463.175 537.725 462.735 536.625 462.109 535.673C461.483 534.72 460.685 533.94 459.772 533.386L461.164 514.7L451.629 510.944L449.982 537.365C449.285 539.215 449.195 541.298 449.728 543.22C450.261 545.143 451.38 546.77 452.874 547.794C454.368 548.819 456.132 549.169 457.832 548.778C459.532 548.388 461.051 547.284 462.099 545.675Z" fill="#FFB8B8"/>
<path d="M509.679 690.955L501.095 690.954L497.013 652.356L509.682 652.357L509.679 690.955Z" fill="#FFB8B8"/>
<path d="M494.964 688.094H511.518V700.246H484.541C484.541 698.65 484.81 697.07 485.334 695.596C485.858 694.121 486.626 692.782 487.593 691.654C488.561 690.525 489.71 689.63 490.975 689.019C492.24 688.409 493.595 688.094 494.964 688.094Z" fill="#2F2E41"/>
<path d="M490.194 665.343L481.858 667.731L469.99 631.385L482.294 627.861L490.194 665.343Z" fill="#FFB8B8"/>
<path d="M475.319 666.661L491.395 662.055L493.882 673.855L467.684 681.36C467.357 679.811 467.296 678.201 467.503 676.624C467.71 675.046 468.181 673.532 468.89 672.167C469.599 670.802 470.532 669.613 471.635 668.668C472.738 667.724 473.99 667.041 475.319 666.661Z" fill="#2F2E41"/>
<path d="M499.632 678.65C498.849 678.651 498.093 678.314 497.511 677.703C496.929 677.092 496.562 676.25 496.482 675.342L486.604 568.069L478.009 600.872L490.183 652.107C490.392 652.985 490.316 653.923 489.969 654.74C489.622 655.557 489.028 656.195 488.301 656.533L478.623 661.046C478.225 661.232 477.798 661.321 477.369 661.31C476.94 661.298 476.517 661.185 476.127 660.978C475.736 660.77 475.386 660.473 475.097 660.103C474.808 659.733 474.586 659.299 474.444 658.827L459.525 608.926C457.891 603.477 457.169 597.715 457.396 591.949L459.478 538.097L514.322 540.804L513.466 674.039C513.456 674.967 513.149 675.856 512.606 676.534C512.063 677.212 511.322 677.629 510.529 677.704L499.878 678.639C499.796 678.646 499.714 678.65 499.632 678.65Z" fill="#2F2E41"/>
<path d="M490.55 418.918C500.735 418.918 508.991 409.293 508.991 397.42C508.991 385.546 500.735 375.921 490.55 375.921C480.365 375.921 472.108 385.546 472.108 397.42C472.108 409.293 480.365 418.918 490.55 418.918Z" fill="#FFB8B8"/>
<path d="M504.111 544.307C499.255 544.307 493.221 543.844 486.979 543.365C478.449 542.711 469.629 542.035 463.046 542.479C462.157 542.582 461.26 542.417 460.441 542.001C459.622 541.586 458.908 540.932 458.367 540.103C451.579 529.973 462.048 490.467 462.497 488.79L471.017 444.614L471.383 444.711L471.017 444.614C472.891 434.899 478.879 427.732 486.644 425.911C493.912 424.208 500.942 427.601 505.451 434.992C505.69 435.384 505.93 435.786 506.169 436.199C520.849 461.545 512.546 524.515 511.989 528.579C512.765 529.661 516.958 535.784 515.805 540.037C515.337 541.767 514.063 542.947 512.019 543.542C509.416 544.143 506.764 544.4 504.111 544.307Z" fill="#CCCCCC"/>
<path d="M463.343 544.327C461.673 544.327 459.42 543.609 456.381 542.135C455.075 541.501 451.102 539.574 455.926 490.428C458.295 466.287 461.69 442.315 461.724 442.075L461.756 441.844L461.939 441.748C462.027 441.702 470.696 437.069 472.203 431.116C472.256 430.91 472.314 430.71 472.379 430.517C472.794 429.194 473.631 428.108 474.715 427.487C475.8 426.866 477.049 426.757 478.201 427.183C479.418 427.522 480.478 428.388 481.168 429.606C481.857 430.823 482.123 432.3 481.912 433.738C481.387 437.62 480.377 441.393 478.916 444.935C474.836 454.747 472.073 480.759 472.045 481.021C471.889 483.242 468.187 535.878 467.474 539.873C467.225 541.268 466.766 542.975 465.421 543.803C464.776 544.174 464.062 544.354 463.343 544.327Z" fill="#2F2E41"/>
<path d="M483.49 542.31C483.153 542.31 482.826 542.179 482.56 541.938C477.134 537.131 485.915 478.87 491.123 458.769C492.165 454.744 493.094 451.297 493.883 448.523C495.32 443.545 496.324 438.411 496.878 433.199C497.165 430.376 497.788 428.763 498.783 428.269C499.475 427.925 500.288 428.158 501.201 428.963C506.01 428.687 510.685 430.978 515.018 433.498L518.916 435.766L523.29 526.054C523.167 531.815 513.423 535.883 509.171 536.144C502.348 536.56 490.094 537.855 484.694 541.841C484.339 542.128 483.921 542.291 483.49 542.31Z" fill="#2F2E41"/>
<path d="M459.119 525.37C459.054 525.37 458.99 525.368 458.925 525.363L450.09 524.729C449.65 524.698 449.22 524.56 448.828 524.324C448.437 524.089 448.091 523.761 447.814 523.361C447.537 522.961 447.335 522.499 447.219 522.003C447.104 521.507 447.078 520.989 447.144 520.481L451.142 489.601L458.669 446.275C458.855 445.208 459.23 444.198 459.772 443.311C460.314 442.424 461.009 441.679 461.813 441.125C462.618 440.572 463.513 440.221 464.441 440.097C465.369 439.972 466.309 440.076 467.2 440.402C468.724 440.969 470.023 442.152 470.864 443.738C471.705 445.324 472.032 447.208 471.786 449.05L465.806 492.463L462.266 522.177C462.157 523.061 461.78 523.869 461.202 524.456C460.624 525.042 459.885 525.366 459.119 525.37Z" fill="#2F2E41"/>
<path d="M493.918 418.39C496.694 418.46 499.451 417.844 502.008 416.583C504.565 415.323 506.864 413.446 508.754 411.075C510.644 408.705 512.083 405.895 512.975 402.831C513.868 399.766 514.194 396.516 513.932 393.294C513.67 390.072 512.826 386.951 511.456 384.136C510.086 381.322 508.22 378.877 505.982 376.963C503.743 375.048 501.182 373.708 498.468 373.029C495.753 372.351 492.946 372.35 490.232 373.026C486.176 370.156 481.461 368.224 476.735 368.715C472.01 369.207 467.336 372.477 465.569 377.61C463.802 382.743 465.7 389.51 470.094 391.596C472.911 392.933 476.092 392.284 479.099 391.745C482.105 391.206 485.385 390.854 488.001 392.662C490.617 394.47 491.794 399.319 489.45 401.58C488.208 402.826 487.321 404.484 486.908 406.332C486.494 408.18 486.573 410.132 487.135 411.927C488.312 415.477 491.527 418.329 493.918 418.39Z" fill="#2F2E41"/>
<path d="M453.04 420.307C448.234 420.311 443.625 422.539 440.228 426.502C436.83 430.465 434.922 435.839 434.922 441.442C434.922 447.045 436.83 452.419 440.228 456.382C443.625 460.345 448.234 462.573 453.04 462.577H453.04C457.846 462.573 462.455 460.345 465.852 456.382C469.25 452.419 471.158 447.045 471.158 441.442C471.158 435.839 469.25 430.465 465.852 426.502C462.455 422.539 457.846 420.311 453.04 420.307Z" fill="#6C63FF"/>
<path d="M451.32 450.22C450.842 450.221 450.378 450.041 449.996 449.707L449.972 449.686L444.987 445.24C444.756 445.034 444.562 444.776 444.416 444.483C444.271 444.189 444.176 443.865 444.138 443.528C444.1 443.192 444.119 442.85 444.194 442.523C444.27 442.195 444.399 441.888 444.576 441.619C444.753 441.349 444.974 441.124 445.226 440.954C445.478 440.784 445.756 440.674 446.045 440.629C446.333 440.585 446.626 440.607 446.907 440.695C447.188 440.783 447.452 440.934 447.683 441.14L450.912 444.027L458.543 432.421C458.72 432.152 458.941 431.926 459.193 431.757C459.444 431.587 459.722 431.477 460.011 431.433C460.299 431.388 460.592 431.41 460.873 431.498C461.154 431.586 461.417 431.737 461.648 431.943L461.649 431.944L461.601 432.02L461.65 431.944C462.116 432.361 462.42 432.977 462.497 433.655C462.574 434.334 462.417 435.021 462.06 435.564L453.084 449.209C452.876 449.524 452.609 449.778 452.304 449.953C451.998 450.127 451.662 450.218 451.322 450.217L451.32 450.22Z" fill="white"/>
<path d="M491.231 477.913H427.601C426.754 477.913 425.916 478.107 425.134 478.485C424.353 478.862 423.642 479.415 423.044 480.113C422.445 480.81 421.971 481.639 421.647 482.55C421.323 483.462 421.157 484.439 421.157 485.425V559.603C421.157 560.59 421.323 561.567 421.647 562.478C421.971 563.389 422.445 564.218 423.044 564.915C423.642 565.613 424.353 566.166 425.134 566.544C425.916 566.921 426.754 567.115 427.601 567.115H491.231C492.077 567.115 492.915 566.921 493.697 566.544C494.479 566.166 495.189 565.613 495.788 564.915C496.386 564.218 496.861 563.389 497.184 562.478C497.508 561.567 497.675 560.59 497.675 559.603V485.425C497.675 484.439 497.508 483.462 497.184 482.55C496.861 481.639 496.386 480.81 495.788 480.113C495.189 479.415 494.479 478.862 493.697 478.485C492.915 478.107 492.077 477.913 491.231 477.913Z" fill="#E64900"/>
<path d="M476.901 534.381L446.858 541.201C445.076 541.603 443.23 541.165 441.724 539.982C440.219 538.8 439.178 536.969 438.829 534.893L436.52 521.068C436.175 518.99 436.551 516.838 437.565 515.084C438.58 513.329 440.15 512.115 441.931 511.708L471.974 504.888C473.756 504.486 475.602 504.924 477.107 506.107C478.612 507.29 479.654 509.12 480.003 511.197L482.312 525.021C482.657 527.099 482.281 529.251 481.266 531.006C480.252 532.76 478.682 533.974 476.901 534.381Z" fill="white"/>
<path d="M470.89 518.048L447.962 523.253C447.543 523.348 447.109 523.245 446.754 522.967C446.4 522.689 446.155 522.258 446.073 521.769C445.992 521.28 446.08 520.773 446.319 520.36C446.558 519.947 446.927 519.662 447.347 519.567L470.274 514.362C470.482 514.314 470.695 514.315 470.903 514.364C471.11 514.413 471.307 514.509 471.483 514.647C471.659 514.785 471.809 514.962 471.926 515.167C472.043 515.373 472.124 515.604 472.164 515.846C472.205 516.088 472.204 516.337 472.162 516.579C472.12 516.821 472.037 517.05 471.919 517.255C471.8 517.459 471.648 517.635 471.472 517.771C471.295 517.907 471.098 518.001 470.89 518.048Z" fill="#6C63FF"/>
<path d="M466.433 525.756L454.574 528.448C454.367 528.495 454.153 528.494 453.946 528.445C453.738 528.396 453.541 528.3 453.366 528.162C453.191 528.024 453.04 527.848 452.923 527.642C452.807 527.436 452.726 527.206 452.685 526.964C452.645 526.722 452.646 526.473 452.688 526.231C452.73 525.99 452.812 525.76 452.931 525.555C453.049 525.351 453.2 525.176 453.377 525.039C453.553 524.903 453.751 524.809 453.958 524.762L465.817 522.07C466.237 521.974 466.671 522.077 467.026 522.356C467.38 522.634 467.625 523.065 467.707 523.554C467.788 524.043 467.7 524.549 467.461 524.962C467.222 525.375 466.853 525.661 466.433 525.756H466.433Z" fill="#6C63FF"/>
<path d="M497.675 486.425V496.284H421.157V486.425C421.157 485.439 421.323 484.462 421.647 483.55C421.971 482.639 422.445 481.81 423.044 481.113C423.642 480.415 424.353 479.862 425.134 479.485C425.916 479.107 426.754 478.913 427.601 478.913H491.231C492.077 478.913 492.915 479.107 493.697 479.485C494.479 479.862 495.189 480.415 495.788 481.113C496.386 481.81 496.861 482.639 497.184 483.55C497.508 484.462 497.675 485.439 497.675 486.425Z" fill="#3F3D56"/>
<path d="M489.305 491.569C489.844 490.547 490.568 489.675 491.428 489.014C492.287 488.354 493.26 487.921 494.278 487.746C495.297 487.572 496.336 487.659 497.322 488.003C498.308 488.347 499.217 488.939 499.986 489.737L514.473 481.579L520.873 490.634L500.275 501.819C499.04 503.236 497.401 504.075 495.671 504.177C493.94 504.279 492.237 503.638 490.885 502.375C489.532 501.111 488.625 499.313 488.334 497.322C488.042 495.33 488.388 493.284 489.305 491.569Z" fill="#FFB8B8"/>
<path d="M509.43 500.331C508.717 500.33 508.024 500.051 507.464 499.536C506.904 499.021 506.508 498.302 506.341 497.493L504.236 487.296C504.076 486.529 504.131 485.722 504.393 484.994C504.655 484.267 505.111 483.656 505.693 483.253L518.384 474.399L511.897 446.709C511.439 444.74 511.539 442.653 512.181 440.756H512.181C512.794 438.958 513.866 437.423 515.254 436.361C516.641 435.299 518.275 434.761 519.934 434.821C521.593 434.88 523.195 435.534 524.524 436.693C525.853 437.852 526.843 439.46 527.359 441.299L534.521 466.793C535.401 469.9 535.408 473.254 534.541 476.367C533.674 479.479 531.978 482.188 529.7 484.101L511.29 499.627C510.749 500.084 510.098 500.33 509.43 500.331Z" fill="#2F2E41"/>
<path d="M530.401 701H453.815C453.615 701 453.424 700.908 453.284 700.744C453.143 700.579 453.064 700.357 453.064 700.125C453.064 699.893 453.143 699.67 453.284 699.506C453.424 699.342 453.615 699.249 453.815 699.249H530.401C530.6 699.249 530.791 699.342 530.932 699.506C531.073 699.67 531.152 699.893 531.152 700.125C531.152 700.357 531.073 700.579 530.932 700.744C530.791 700.908 530.6 701 530.401 701Z" fill="#CCCCCC"/>
</g>
<defs>
<clipPath id="clip0_2_483">
<rect width="663" height="701" fill="white"/>
</clipPath>
</defs>
</svg>
