<svg width="30" height="29" viewBox="0 0 30 29" fill="none" xmlns="http://www.w3.org/2000/svg">
<path d="M15.2687 2.40649C12.7236 2.40649 10.2827 3.41756 8.48296 5.21726C6.68326 7.01696 5.6722 9.45788 5.6722 12.003C5.6722 18.4807 14.1291 25.7981 14.489 26.11C14.7063 26.2958 14.9828 26.3979 15.2687 26.3979C15.5547 26.3979 15.8312 26.2958 16.0485 26.11C16.4683 25.7981 24.8653 18.4807 24.8653 12.003C24.8653 9.45788 23.8542 7.01696 22.0545 5.21726C20.2548 3.41756 17.8139 2.40649 15.2687 2.40649V2.40649ZM15.2687 23.5789C12.7137 21.1797 8.07133 16.0096 8.07133 12.003C8.07133 10.0942 8.82963 8.26348 10.1794 6.9137C11.5292 5.56393 13.3599 4.80563 15.2687 4.80563C17.1776 4.80563 19.0083 5.56393 20.3581 6.9137C21.7078 8.26348 22.4661 10.0942 22.4661 12.003C22.4661 16.0096 17.8238 21.1917 15.2687 23.5789ZM15.2687 7.20477C14.3197 7.20477 13.392 7.48618 12.603 8.01342C11.8139 8.54066 11.1989 9.29005 10.8357 10.1668C10.4725 11.0436 10.3775 12.0084 10.5627 12.9391C10.7478 13.8699 11.2048 14.7249 11.8758 15.3959C12.5469 16.067 13.4019 16.524 14.3326 16.7091C15.2634 16.8943 16.2282 16.7992 17.105 16.4361C17.9817 16.0729 18.7311 15.4579 19.2584 14.6688C19.7856 13.8797 20.067 12.952 20.067 12.003C20.067 10.7305 19.5615 9.51 18.6616 8.61015C17.7618 7.7103 16.5413 7.20477 15.2687 7.20477ZM15.2687 14.4022C14.7942 14.4022 14.3304 14.2615 13.9358 13.9978C13.5413 13.7342 13.2338 13.3595 13.0522 12.9211C12.8706 12.4828 12.8231 12.0004 12.9157 11.535C13.0083 11.0696 13.2368 10.6421 13.5723 10.3066C13.9078 9.97107 14.3353 9.74257 14.8007 9.65C15.2661 9.55743 15.7485 9.60494 16.1868 9.78653C16.6252 9.96811 16.9999 10.2756 17.2635 10.6702C17.5272 11.0647 17.6679 11.5285 17.6679 12.003C17.6679 12.6393 17.4151 13.2496 16.9652 13.6995C16.5153 14.1494 15.905 14.4022 15.2687 14.4022Z" fill="white"/>
</svg>
