<svg width="208" height="208" viewBox="0 0 208 208" fill="none" xmlns="http://www.w3.org/2000/svg">
<g filter="url(#filter0_d_2_788)">
<rect x="40" y="26" width="128" height="128" rx="64" fill="#FF5A1F"/>
<path d="M85.5727 72.5403L92.0069 74.425L95.7267 83.2687C95.6261 83.3654 95.5759 83.462 95.5256 83.5587L93.716 88.8746C93.6657 89.0679 93.6657 89.2612 93.716 89.4062L98.7427 101.294C98.5416 101.874 98.4411 102.503 98.4411 103.131C98.4411 106.514 101.306 109.268 104.825 109.268C108.344 109.268 111.209 106.514 111.209 103.131C111.209 102.599 111.159 102.068 111.008 101.584L122.519 96.8484C122.921 96.7035 123.122 96.2202 122.921 95.8336C122.77 95.447 122.268 95.2537 121.866 95.447L110.405 100.135C110.153 99.748 109.902 99.3614 109.55 99.0231L120.358 94.7221C120.508 94.6737 120.609 94.5771 120.659 94.4321C120.709 94.2871 120.709 94.1422 120.659 93.9972L115.079 81.0457C114.979 80.7557 114.627 80.6108 114.325 80.7557L113.169 81.1907L109.248 72.0087C109.198 71.8637 109.098 71.767 108.947 71.7187C108.796 71.6704 108.645 71.6704 108.494 71.7187L98.24 75.8748C98.0892 75.9231 97.9887 76.0198 97.9384 76.1647C97.8882 76.3097 97.8882 76.4547 97.9384 76.5997L101.859 85.7817L100.552 86.3133C100.251 86.4099 100.1 86.7482 100.251 87.0382L104.574 97.0901C104.121 97.0901 103.669 97.1867 103.267 97.2834L93.3641 73.5068C93.2636 73.3135 93.0625 73.1202 92.8615 73.0719L86.0754 71.0421C85.6733 70.8972 85.2209 71.1388 85.0701 71.5737C84.869 71.9603 85.1203 72.3953 85.5727 72.5403ZM99.1951 76.6963L102.01 75.5848L103.116 78.1461L106.635 76.7447L105.529 74.1834L108.344 73.0719L112.063 81.7223L102.865 85.3951L99.1951 76.6963ZM104.825 98.6365C104.976 98.6365 105.076 98.6365 105.227 98.6365C105.73 98.6848 106.182 98.7815 106.584 98.9748C106.635 98.9748 106.685 99.0231 106.735 99.0231C107.188 99.2164 107.59 99.4581 107.942 99.748C108.293 100.038 108.645 100.425 108.897 100.811C109.198 101.246 109.399 101.729 109.5 102.261C109.55 102.551 109.6 102.889 109.6 103.228C109.6 105.74 107.489 107.819 104.825 107.819C102.211 107.819 100.05 105.789 100.05 103.228C100.05 101.584 100.954 100.135 102.312 99.3131C102.764 99.0231 103.267 98.8298 103.82 98.7332C104.172 98.6365 104.523 98.6365 104.825 98.6365ZM101.507 87.0865L105.529 85.4917L107.087 89.0679L111.812 87.1832L110.254 83.607L114.275 82.0122L119.352 93.9972L108.595 98.2982C107.791 97.7183 106.836 97.3317 105.83 97.1867L101.507 87.0865ZM99.748 99.5547L97.8882 95.2053L100.1 93.9005L101.759 97.8633C100.954 98.2499 100.251 98.8298 99.748 99.5547ZM97.285 93.7555L95.3246 89.1645L96.5812 85.4434L99.4967 92.4507L97.285 93.7555Z" fill="white"/>
<path d="M104.825 105.837C106.333 105.837 107.539 104.677 107.539 103.228C107.539 103.179 107.539 103.131 107.539 103.083C107.489 102.551 107.288 102.019 106.986 101.633C106.484 101.005 105.679 100.618 104.825 100.618C104.775 100.618 104.674 100.618 104.624 100.618C104.071 100.666 103.518 100.86 103.116 101.198C102.462 101.681 102.06 102.406 102.06 103.276C102.111 104.629 103.317 105.837 104.825 105.837Z" fill="white"/>
</g>
<defs>
<filter id="filter0_d_2_788" x="0" y="0" width="208" height="208" filterUnits="userSpaceOnUse" color-interpolation-filters="sRGB">
<feFlood flood-opacity="0" result="BackgroundImageFix"/>
<feColorMatrix in="SourceAlpha" type="matrix" values="0 0 0 0 0 0 0 0 0 0 0 0 0 0 0 0 0 0 127 0" result="hardAlpha"/>
<feOffset dy="14"/>
<feGaussianBlur stdDeviation="20"/>
<feComposite in2="hardAlpha" operator="out"/>
<feColorMatrix type="matrix" values="0 0 0 0 0.705882 0 0 0 0 0.203922 0 0 0 0 0.0117647 0 0 0 1 0"/>
<feBlend mode="normal" in2="BackgroundImageFix" result="effect1_dropShadow_2_788"/>
<feBlend mode="normal" in="SourceGraphic" in2="effect1_dropShadow_2_788" result="shape"/>
</filter>
</defs>
</svg>
