<svg width="164" height="33" viewBox="0 0 164 33" fill="none" xmlns="http://www.w3.org/2000/svg">
<path fill-rule="evenodd" clip-rule="evenodd" d="M21.5 0C16.1915 0 11.8882 4.28572 11.8882 9.57252V23.1756C11.8882 24.4278 10.8691 25.4427 9.61176 25.4427C8.3545 25.4427 7.33529 24.4278 7.33529 23.1756V20.7974C7.33529 18.7718 5.69323 17.1298 3.66765 17.1298V17.1298C1.64206 17.1298 0 18.7718 0 20.7974V23.4275C0 28.7143 4.30334 33 9.61176 33C14.9202 33 19.2235 28.7143 19.2235 23.4275V9.57252C19.2235 8.32028 20.2426 7.30534 21.5 7.30534C22.7574 7.30534 23.7765 8.32028 23.7765 9.57252V10.2483C23.7765 11.539 24.4843 12.7259 25.6199 13.3394V13.3394C26.5972 13.8673 27.7665 13.902 28.7734 13.4329L28.9095 13.3695C30.2529 12.7437 31.1118 11.396 31.1118 9.91396V9.57252C31.1118 4.28572 26.8085 0 21.5 0ZM26.2061 18.3648C25.0692 17.8458 23.7765 18.6767 23.7765 19.9265V23.4275C23.7765 28.7143 28.0798 33 33.3882 33C38.6967 33 43 28.7143 43 23.4275V21.0493C43 19.0237 41.3579 17.3817 39.3324 17.3817V17.3817C37.3068 17.3817 35.6647 19.0237 35.6647 21.0493V23.4275C35.6647 24.6797 34.6456 25.6947 33.3882 25.6947C32.1309 25.6947 31.1118 24.6797 31.1118 23.4275V20.7783C31.1118 19.0378 29.4156 17.8022 27.7589 18.336L27.4455 18.437C27.0378 18.5684 26.5957 18.5426 26.2061 18.3648V18.3648Z" fill="#FFF8F1"/>
<path d="M66.0453 24.5391C68.8499 24.5391 70.3087 23.5245 70.9759 22.6162H71.1795V24.3617H75.9292V9.83017H71.123V15.2937H70.9759C70.3313 14.4068 68.9404 13.3212 66.034 13.3212C62.223 13.3212 59 15.1802 59 18.9266C59 22.5737 62.0873 24.5391 66.0453 24.5391ZM67.572 22.1337C65.2085 22.1337 63.9193 20.814 63.9193 18.9124C63.9193 17.025 65.1859 15.7265 67.572 15.7265C69.9129 15.7265 71.2247 16.9682 71.2247 18.9124C71.2247 20.8566 69.8903 22.1337 67.572 22.1337Z" fill="#FDF2F2"/>
<path d="M87.8062 24.5746C92.1035 24.5746 94.9985 23.2619 95.677 21.2397L91.2214 21.0552C90.7351 21.8854 89.4912 22.3182 87.8853 22.3182C85.4766 22.3182 83.9499 21.3178 83.9499 19.6929V19.6858H95.7788V18.8556C95.7788 15.1518 92.2052 13.3212 87.6139 13.3212C82.5024 13.3212 79.1889 15.5988 79.1889 18.9621C79.1889 22.4176 82.4571 24.5746 87.8062 24.5746ZM83.9499 17.8126C84.0517 16.5709 85.5557 15.5775 87.6931 15.5775C89.7852 15.5775 91.2327 16.5141 91.244 17.8126H83.9499Z" fill="#FDF2F2"/>
<path d="M103.74 9.83017H98.9226V24.3617H103.74V9.83017Z" fill="#FDF2F2"/>
<path d="M107.599 24.3617H112.417V13.4631H107.599V24.3617ZM110.019 12.0582C111.456 12.0582 112.632 11.3699 112.632 10.5255C112.632 9.68826 111.456 9 110.019 9C108.594 9 107.418 9.68826 107.418 10.5255C107.418 11.3699 108.594 12.0582 110.019 12.0582Z" fill="#FDF2F2"/>
<path d="M132.47 13.4631H127.37L123.774 21.261H123.593L119.985 13.4631H114.896L120.969 24.3617H126.397L132.47 13.4631Z" fill="#FDF2F2"/>
<path d="M142.26 24.5746C146.558 24.5746 149.453 23.2619 150.131 21.2397L145.676 21.0552C145.189 21.8854 143.946 22.3182 142.34 22.3182C139.931 22.3182 138.404 21.3178 138.404 19.6929V19.6858H150.233V18.8556C150.233 15.1518 146.66 13.3212 142.068 13.3212C136.957 13.3212 133.643 15.5988 133.643 18.9621C133.643 22.4176 136.911 24.5746 142.26 24.5746ZM138.404 17.8126C138.506 16.5709 140.01 15.5775 142.147 15.5775C144.24 15.5775 145.687 16.5141 145.698 17.8126H138.404Z" fill="#FDF2F2"/>
<path d="M153.377 24.3617H158.195V18.1957C158.195 16.8547 159.755 15.9323 161.881 15.9323C162.548 15.9323 163.464 16.0032 163.917 16.0955V13.4134C163.487 13.3495 162.888 13.307 162.401 13.307C160.456 13.307 158.862 14.0165 158.228 15.3646H158.047V13.4631H153.377V24.3617Z" fill="#FDF2F2"/>
</svg>
