<svg width="128" height="40" viewBox="0 0 128 40" fill="none" xmlns="http://www.w3.org/2000/svg">
<path fill-rule="evenodd" clip-rule="evenodd" d="M25.078 0C18.8861 0 13.8667 5.06628 13.8667 11.316V27.3965C13.8667 28.8768 12.678 30.0766 11.2114 30.0766C9.74486 30.0766 8.55604 28.8768 8.55604 27.3965V24.5276C8.55604 22.1649 6.64071 20.2496 4.27802 20.2496V20.2496C1.91533 20.2496 0 22.165 0 24.5276V27.6943C0 33.944 5.0195 39.0103 11.2114 39.0103C17.4033 39.0103 22.4227 33.944 22.4227 27.6943V11.316C22.4227 9.83566 23.6114 8.63587 25.078 8.63587C26.5447 8.63587 27.7334 9.83566 27.7334 11.316V12.1624C27.7334 13.6603 28.5503 15.0389 29.8642 15.7582V15.7582C31.0146 16.3881 32.397 16.4294 33.5831 15.8694L33.7422 15.7943C35.2974 15.06 36.2894 13.4946 36.2894 11.7748V11.316C36.2894 5.06628 31.27 0 25.078 0ZM30.563 21.7075C29.2423 21.0966 27.7334 22.0611 27.7334 23.5162V27.6943C27.7334 33.944 32.7528 39.0103 38.9447 39.0103C45.1367 39.0103 50.1561 33.944 50.1561 27.6943V24.8254C50.1561 22.4627 48.2408 20.5474 45.8781 20.5474V20.5474C43.5154 20.5474 41.6001 22.4627 41.6001 24.8254V27.6943C41.6001 29.1746 40.4114 30.3744 38.9447 30.3744C37.4781 30.3744 36.2894 29.1746 36.2894 27.6943V24.5042C36.2894 22.479 34.3117 21.0443 32.3865 21.673L32.0183 21.7932C31.5398 21.9495 31.0198 21.9189 30.563 21.7075V21.7075Z" fill="#FF5A1F"/>
<path d="M66.5919 27.2942C68.3516 27.2942 69.2669 26.2796 69.6855 25.3714H69.8132V27.1169H72.7933V12.5853H69.7777V18.0488H69.6855C69.2811 17.1619 68.4083 16.0763 66.5848 16.0763C64.1936 16.0763 62.1714 17.9353 62.1714 21.6817C62.1714 25.3288 64.1085 27.2942 66.5919 27.2942ZM67.5498 24.8889C66.0668 24.8889 65.2579 23.5691 65.2579 21.6675C65.2579 19.7801 66.0526 18.4816 67.5498 18.4816C69.0185 18.4816 69.8416 19.7234 69.8416 21.6675C69.8416 23.6117 69.0043 24.8889 67.5498 24.8889Z" fill="#161E2E"/>
<path d="M80.2454 27.3297C82.9416 27.3297 84.7581 26.017 85.1838 23.9948L82.3882 23.8104C82.0831 24.6405 81.3026 25.0734 80.295 25.0734C78.7837 25.0734 77.8258 24.0729 77.8258 22.448V22.4409H85.2477V21.6108C85.2477 17.9069 83.0055 16.0763 80.1247 16.0763C76.9176 16.0763 74.8386 18.3539 74.8386 21.7172C74.8386 25.1727 76.8892 27.3297 80.2454 27.3297ZM77.8258 20.5677C77.8897 19.326 78.8334 18.3326 80.1744 18.3326C81.4871 18.3326 82.3953 19.2692 82.4024 20.5677H77.8258Z" fill="#161E2E"/>
<path d="M90.2429 12.5853H87.2202V27.1169H90.2429V12.5853Z" fill="#161E2E"/>
<path d="M92.6642 27.1169H95.6869V16.2182H92.6642V27.1169ZM94.1827 14.8133C95.0838 14.8133 95.8217 14.125 95.8217 13.2807C95.8217 12.4434 95.0838 11.7551 94.1827 11.7551C93.2886 11.7551 92.5507 12.4434 92.5507 13.2807C92.5507 14.125 93.2886 14.8133 94.1827 14.8133Z" fill="#161E2E"/>
<path d="M108.269 16.2182H105.069L102.813 24.0161H102.699L100.436 16.2182H97.2426L101.053 27.1169H104.459L108.269 16.2182Z" fill="#161E2E"/>
<path d="M114.412 27.3297C117.108 27.3297 118.925 26.017 119.35 23.9948L116.555 23.8104C116.25 24.6405 115.469 25.0734 114.462 25.0734C112.95 25.0734 111.992 24.0729 111.992 22.448V22.4409H119.414V21.6108C119.414 17.9069 117.172 16.0763 114.291 16.0763C111.084 16.0763 109.005 18.3539 109.005 21.7172C109.005 25.1727 111.056 27.3297 114.412 27.3297ZM111.992 20.5677C112.056 19.326 113 18.3326 114.341 18.3326C115.654 18.3326 116.562 19.2692 116.569 20.5677H111.992Z" fill="#161E2E"/>
<path d="M121.387 27.1169H124.409V20.9509C124.409 19.6098 125.389 18.6874 126.723 18.6874C127.141 18.6874 127.716 18.7584 128 18.8506V16.1685C127.73 16.1047 127.354 16.0621 127.049 16.0621C125.829 16.0621 124.828 16.7716 124.431 18.1198H124.317V16.2182H121.387V27.1169Z" fill="#161E2E"/>
</svg>
