<svg width="30" height="30" viewBox="0 0 30 30" fill="none" xmlns="http://www.w3.org/2000/svg">
<path d="M23.4308 5.50317H6.63681C5.68237 5.50317 4.76703 5.88232 4.09214 6.55721C3.41725 7.2321 3.0381 8.14744 3.0381 9.10188V21.0976C3.0381 22.052 3.41725 22.9673 4.09214 23.6422C4.76703 24.3171 5.68237 24.6963 6.63681 24.6963H23.4308C24.3852 24.6963 25.3005 24.3171 25.9754 23.6422C26.6503 22.9673 27.0295 22.052 27.0295 21.0976V9.10188C27.0295 8.14744 26.6503 7.2321 25.9754 6.55721C25.3005 5.88232 24.3852 5.50317 23.4308 5.50317V5.50317ZM22.9389 7.90231L15.8855 14.9558C15.774 15.0682 15.6413 15.1574 15.4951 15.2183C15.3489 15.2792 15.1921 15.3106 15.0338 15.3106C14.8754 15.3106 14.7186 15.2792 14.5725 15.2183C14.4263 15.1574 14.2936 15.0682 14.1821 14.9558L7.12863 7.90231H22.9389ZM24.6303 21.0976C24.6303 21.4157 24.5039 21.7208 24.279 21.9458C24.054 22.1707 23.7489 22.2971 23.4308 22.2971H6.63681C6.31866 22.2971 6.01355 22.1707 5.78858 21.9458C5.56362 21.7208 5.43724 21.4157 5.43724 21.0976V9.5937L12.4907 16.6472C13.1655 17.3211 14.0801 17.6996 15.0338 17.6996C15.9874 17.6996 16.9021 17.3211 17.5769 16.6472L24.6303 9.5937V21.0976Z" fill="white"/>
</svg>
