<svg width="71" height="32" viewBox="0 0 71 32" fill="none" xmlns="http://www.w3.org/2000/svg">
<path d="M42.0721 19.2839C42.8969 19.2839 43.326 18.8083 43.5222 18.3826H43.5821V19.2008H44.979V12.3891H43.5655V14.9502H43.5222C43.3327 14.5344 42.9236 14.0255 42.0688 14.0255C40.9479 14.0255 40 14.8969 40 16.6531C40 18.3626 40.908 19.2839 42.0721 19.2839ZM42.5211 18.1564C41.826 18.1564 41.4468 17.5378 41.4468 16.6464C41.4468 15.7617 41.8193 15.153 42.5211 15.153C43.2096 15.153 43.5954 15.7351 43.5954 16.6464C43.5954 17.5577 43.2029 18.1564 42.5211 18.1564Z" fill="#4D4D4D"/>
<path d="M48.4722 19.3006C49.736 19.3006 50.5875 18.6853 50.7871 17.7374L49.4766 17.6509C49.3336 18.04 48.9677 18.2429 48.4954 18.2429C47.787 18.2429 47.338 17.7739 47.338 17.0123V17.009H50.817V16.6198C50.817 14.8836 49.766 14.0255 48.4156 14.0255C46.9123 14.0255 45.9377 15.0932 45.9377 16.6697C45.9377 18.2895 46.899 19.3006 48.4722 19.3006ZM47.338 16.1309C47.3679 15.5488 47.8103 15.0832 48.4389 15.0832C49.0542 15.0832 49.4799 15.5222 49.4833 16.1309H47.338Z" fill="#4D4D4D"/>
<path d="M53.1585 12.3891H51.7416V19.2008H53.1585V12.3891Z" fill="#4D4D4D"/>
<path d="M54.2935 19.2008H55.7104V14.0921H54.2935V19.2008ZM55.0053 13.4335C55.4277 13.4335 55.7736 13.1109 55.7736 12.7151C55.7736 12.3226 55.4277 12 55.0053 12C54.5862 12 54.2403 12.3226 54.2403 12.7151C54.2403 13.1109 54.5862 13.4335 55.0053 13.4335Z" fill="#4D4D4D"/>
<path d="M61.6082 14.0921H60.1082L59.0505 17.7473H58.9973L57.9363 14.0921H56.4396L58.2257 19.2008H59.8221L61.6082 14.0921Z" fill="#4D4D4D"/>
<path d="M64.4877 19.3006C65.7516 19.3006 66.603 18.6853 66.8026 17.7374L65.4921 17.6509C65.3491 18.04 64.9833 18.2429 64.511 18.2429C63.8025 18.2429 63.3535 17.7739 63.3535 17.0123V17.009H66.8325V16.6198C66.8325 14.8836 65.7815 14.0255 64.4311 14.0255C62.9278 14.0255 61.9533 15.0932 61.9533 16.6697C61.9533 18.2895 62.9145 19.3006 64.4877 19.3006ZM63.3535 16.1309C63.3834 15.5488 63.8258 15.0832 64.4544 15.0832C65.0697 15.0832 65.4955 15.5222 65.4988 16.1309H63.3535Z" fill="#4D4D4D"/>
<path d="M67.7571 19.2008H69.174V16.3105C69.174 15.6819 69.633 15.2495 70.2583 15.2495C70.4545 15.2495 70.7239 15.2828 70.857 15.326V14.0688C70.7306 14.0388 70.5543 14.0189 70.4113 14.0189C69.8392 14.0189 69.3702 14.3515 69.184 14.9834H69.1308V14.0921H67.7571V19.2008Z" fill="#4D4D4D"/>
<path fill-rule="evenodd" clip-rule="evenodd" d="M16 2C12.0495 2 8.84706 5.63637 8.84706 10.1221V21.6641C8.84706 22.7266 8.08866 23.5878 7.15294 23.5878C6.2173 23.5878 5.45882 22.7266 5.45882 21.6641V19.2638C5.45882 17.7563 4.23682 16.5344 2.72941 16.5344C1.222 16.5344 0 17.7564 0 19.2638V21.8779C0 26.3636 3.20248 30 7.15294 30C11.1034 30 14.3059 26.3636 14.3059 21.8779V10.1221C14.3059 9.05963 15.0643 8.19847 16 8.19847C16.9357 8.19847 17.6941 9.05963 17.6941 10.1221V11.0076C17.6941 11.9185 18.1665 12.7642 18.9421 13.2419C19.7349 13.7302 20.727 13.7619 21.5493 13.3251L21.652 13.2705C22.5756 12.7799 23.1529 11.8195 23.1529 10.7737V10.1221C23.1529 5.63637 19.9505 2 16 2ZM19.4754 17.5683C18.6641 17.146 17.6941 17.7347 17.6941 18.6493V21.8779C17.6941 26.3636 20.8966 30 24.8471 30C28.7976 30 32 26.3636 32 21.8779V19.4775C32 17.9701 30.778 16.7481 29.2706 16.7481C27.7632 16.7481 26.5412 17.9701 26.5412 19.4775V21.8779C26.5412 22.9404 25.7828 23.8015 24.8471 23.8015C23.9113 23.8015 23.1529 22.9404 23.1529 21.8779V19.2469C23.1529 17.9823 21.8942 17.1037 20.7071 17.5398L20.4583 17.6312C20.1364 17.7494 19.7796 17.7266 19.4754 17.5683Z" fill="#FF4F4C"/>
</svg>
