<svg width="208" height="208" viewBox="0 0 208 208" fill="none" xmlns="http://www.w3.org/2000/svg">
<g filter="url(#filter0_d_2_782)">
<rect x="40" y="26" width="128" height="128" rx="64" fill="#FF5A1F"/>
<path d="M85.9985 108.628H113.126C113.181 108.628 113.181 108.628 113.236 108.628C113.236 108.628 113.236 108.628 113.292 108.628H113.347H113.403H113.458C113.458 108.628 113.458 108.628 113.514 108.628C113.514 108.628 113.514 108.628 113.569 108.628C113.569 108.628 113.569 108.628 113.625 108.628C113.625 108.628 113.625 108.628 113.68 108.628C113.68 108.628 113.68 108.628 113.736 108.628C113.736 108.628 113.736 108.628 113.791 108.628C113.791 108.628 113.791 108.628 113.847 108.628C113.847 108.628 113.847 108.628 113.902 108.628C113.902 108.628 113.902 108.628 113.958 108.574L122.834 100.117L122.889 100.064L122.945 100.01C122.945 100.01 122.945 99.9559 123 99.9559C123 99.9559 123 99.9559 123 99.902V99.8481C123 99.8481 123 99.8481 123 99.7943C123 99.7943 123 99.7943 123 99.7404V99.6865C123 99.6865 123 99.6866 123 99.6327V99.5788C123 99.525 123 99.525 123 99.4711V99.4172V72.8618C123 72.3771 122.612 72 122.112 72H94.8745C94.8745 72 94.8745 72 94.819 72H94.7635C94.7635 72 94.7635 72 94.708 72H94.6526H94.5971H94.5416C94.5416 72 94.5416 72 94.4861 72C94.4861 72 94.4861 72 94.4307 72C94.4307 72 94.4307 72 94.3752 72C94.3752 72 94.3752 72 94.3197 72C94.3197 72 94.3197 72 94.2642 72C94.2642 72 94.2642 72 94.2088 72C94.2088 72 94.2088 72 94.1533 72C94.1533 72 94.1533 72 94.0978 72C94.0978 72 94.0978 72 94.0423 72.0539L85.1664 80.5107L85.1109 80.5645L85.0555 80.6184C85.0555 80.6184 85.0555 80.6722 85 80.6722C85 80.6722 85 80.6722 85 80.7261V80.78C85 80.78 85 80.78 85 80.8338C85 80.8338 85 80.8338 85 80.8877V80.9416C85 80.9416 85 80.9416 85 80.9954V81.0493C85 81.1032 85 81.1032 85 81.157V81.2109V107.659C85.1109 108.197 85.4993 108.628 85.9985 108.628ZM112.238 106.904H86.8861V82.1805H95.3182V95.4851L97.6482 93.923L99.4788 95.4851L101.254 93.8153L103.972 95.4851V82.1805H112.293V106.904H112.238ZM114.013 81.6418L121.114 74.6932V98.9324L114.013 105.666V81.6418ZM112.793 80.4568H105.026L111.794 73.7237H119.616L112.793 80.4568ZM95.2073 73.7237H103.085L96.0394 80.4568H88.162L95.2073 73.7237Z" fill="white"/>
</g>
<defs>
<filter id="filter0_d_2_782" x="0" y="0" width="208" height="208" filterUnits="userSpaceOnUse" color-interpolation-filters="sRGB">
<feFlood flood-opacity="0" result="BackgroundImageFix"/>
<feColorMatrix in="SourceAlpha" type="matrix" values="0 0 0 0 0 0 0 0 0 0 0 0 0 0 0 0 0 0 127 0" result="hardAlpha"/>
<feOffset dy="14"/>
<feGaussianBlur stdDeviation="20"/>
<feComposite in2="hardAlpha" operator="out"/>
<feColorMatrix type="matrix" values="0 0 0 0 0.705882 0 0 0 0 0.203922 0 0 0 0 0.0117647 0 0 0 1 0"/>
<feBlend mode="normal" in2="BackgroundImageFix" result="effect1_dropShadow_2_782"/>
<feBlend mode="normal" in="SourceGraphic" in2="effect1_dropShadow_2_782" result="shape"/>
</filter>
</defs>
</svg>
