<svg width="74" height="20" viewBox="0 0 74 20" fill="none" xmlns="http://www.w3.org/2000/svg">
<rect width="74" height="20" rx="4" fill="#FEECDC"/>
<path d="M15.5 5.41675L16.9163 8.28592L20.0834 8.74883L17.7917 10.9809L18.3325 14.1342L15.5 12.6447L12.6675 14.1342L13.2084 10.9809L10.9167 8.74883L14.0838 8.28592L15.5 5.41675Z" fill="#FF5A1F"/>
<path d="M26.6321 14V6.72727H29.5014C30.053 6.72727 30.523 6.83262 30.9112 7.04332C31.2995 7.25166 31.5954 7.54167 31.799 7.91335C32.005 8.28267 32.108 8.70881 32.108 9.19176C32.108 9.67472 32.0038 10.1009 31.7955 10.4702C31.5871 10.8395 31.2853 11.1271 30.8899 11.3331C30.4969 11.5391 30.0211 11.642 29.4624 11.642H27.6335V10.4098H29.2138C29.5097 10.4098 29.7536 10.3589 29.9453 10.2571C30.1394 10.1529 30.2839 10.0097 30.3786 9.82741C30.4756 9.64276 30.5241 9.43087 30.5241 9.19176C30.5241 8.95028 30.4756 8.73958 30.3786 8.55966C30.2839 8.37737 30.1394 8.23651 29.9453 8.13707C29.7512 8.03527 29.505 7.98438 29.2067 7.98438H28.1697V14H26.6321ZM35.4549 14.1065C34.9033 14.1065 34.4263 13.9893 34.0238 13.755C33.6237 13.5182 33.3147 13.1892 33.0969 12.7678C32.8791 12.344 32.7702 11.8527 32.7702 11.294C32.7702 10.7306 32.8791 10.2382 33.0969 9.81676C33.3147 9.39299 33.6237 9.06392 34.0238 8.82955C34.4263 8.5928 34.9033 8.47443 35.4549 8.47443C36.0065 8.47443 36.4824 8.5928 36.8825 8.82955C37.2849 9.06392 37.5951 9.39299 37.8129 9.81676C38.0307 10.2382 38.1396 10.7306 38.1396 11.294C38.1396 11.8527 38.0307 12.344 37.8129 12.7678C37.5951 13.1892 37.2849 13.5182 36.8825 13.755C36.4824 13.9893 36.0065 14.1065 35.4549 14.1065ZM35.462 12.9347C35.7129 12.9347 35.9225 12.8636 36.0906 12.7216C36.2586 12.5772 36.3853 12.3807 36.4705 12.1321C36.5581 11.8835 36.6019 11.6006 36.6019 11.2834C36.6019 10.9661 36.5581 10.6832 36.4705 10.4347C36.3853 10.1861 36.2586 9.98958 36.0906 9.84517C35.9225 9.70076 35.7129 9.62855 35.462 9.62855C35.2087 9.62855 34.9956 9.70076 34.8228 9.84517C34.6523 9.98958 34.5233 10.1861 34.4357 10.4347C34.3505 10.6832 34.3079 10.9661 34.3079 11.2834C34.3079 11.6006 34.3505 11.8835 34.4357 12.1321C34.5233 12.3807 34.6523 12.5772 34.8228 12.7216C34.9956 12.8636 35.2087 12.9347 35.462 12.9347ZM39.1232 16.0455V8.54545H40.6147V9.46165H40.6822C40.7485 9.31487 40.8443 9.16572 40.9698 9.0142C41.0977 8.86032 41.2634 8.73248 41.467 8.63068C41.6729 8.52652 41.9286 8.47443 42.234 8.47443C42.6317 8.47443 42.9987 8.5786 43.3349 8.78693C43.671 8.9929 43.9397 9.30421 44.141 9.72088C44.3422 10.1352 44.4428 10.6548 44.4428 11.2798C44.4428 11.8883 44.3446 12.402 44.1481 12.821C43.954 13.2377 43.6888 13.5537 43.3526 13.7692C43.0188 13.9822 42.6448 14.0888 42.2305 14.0888C41.9369 14.0888 41.6871 14.0402 41.4812 13.9432C41.2776 13.8461 41.1107 13.7242 40.9805 13.5774C40.8503 13.4283 40.7508 13.2779 40.6822 13.1264H40.636V16.0455H39.1232ZM40.604 11.2727C40.604 11.5971 40.649 11.88 40.739 12.1214C40.829 12.3629 40.9592 12.5511 41.1296 12.6861C41.3001 12.8187 41.5072 12.8849 41.7511 12.8849C41.9973 12.8849 42.2056 12.8175 42.3761 12.6825C42.5465 12.5452 42.6755 12.3558 42.7631 12.1143C42.8531 11.8705 42.8981 11.59 42.8981 11.2727C42.8981 10.9579 42.8543 10.6809 42.7667 10.4418C42.6791 10.2027 42.5501 10.0156 42.3796 9.88068C42.2092 9.74574 41.9996 9.67827 41.7511 9.67827C41.5049 9.67827 41.2965 9.74337 41.1261 9.87358C40.958 10.0038 40.829 10.1884 40.739 10.4276C40.649 10.6667 40.604 10.9484 40.604 11.2727ZM48.9492 11.6776V8.54545H50.462V14H49.0096V13.0092H48.9528C48.8297 13.3288 48.6249 13.5857 48.3384 13.7798C48.0543 13.974 47.7075 14.071 47.2979 14.071C46.9334 14.071 46.6126 13.9882 46.3356 13.8224C46.0586 13.6567 45.842 13.4212 45.6857 13.1158C45.5318 12.8104 45.4537 12.4446 45.4513 12.0185V8.54545H46.9641V11.7486C46.9665 12.0705 47.0529 12.325 47.2234 12.5121C47.3938 12.6991 47.6223 12.7926 47.9087 12.7926C48.091 12.7926 48.2615 12.7512 48.4201 12.6683C48.5787 12.5831 48.7066 12.4576 48.8036 12.2919C48.9031 12.1262 48.9516 11.9214 48.9492 11.6776ZM53.1848 6.72727V14H51.6721V6.72727H53.1848ZM55.9521 14.103C55.604 14.103 55.2939 14.0426 55.0217 13.9219C54.7494 13.7988 54.534 13.6177 54.3754 13.3786C54.2191 13.1371 54.141 12.8364 54.141 12.4766C54.141 12.1735 54.1966 11.919 54.3079 11.7131C54.4192 11.5071 54.5707 11.3414 54.7624 11.2159C54.9542 11.0904 55.172 10.9957 55.4158 10.9318C55.6621 10.8679 55.9201 10.8229 56.19 10.7969C56.5072 10.7637 56.7629 10.733 56.957 10.7045C57.1512 10.6738 57.292 10.6288 57.3796 10.5696C57.4672 10.5104 57.511 10.4228 57.511 10.3068V10.2855C57.511 10.0606 57.44 9.8866 57.2979 9.76349C57.1583 9.64039 56.9594 9.57884 56.7013 9.57884C56.4291 9.57884 56.2125 9.6392 56.0515 9.75994C55.8905 9.87831 55.784 10.0275 55.7319 10.2074L54.3327 10.0938C54.4038 9.76231 54.5434 9.47585 54.7518 9.23438C54.9601 8.99053 55.2288 8.8035 55.5579 8.6733C55.8893 8.54072 56.2728 8.47443 56.7085 8.47443C57.0115 8.47443 57.3015 8.50994 57.5785 8.58097C57.8578 8.65199 58.1052 8.76207 58.3207 8.91122C58.5385 9.06037 58.7101 9.25213 58.8356 9.48651C58.9611 9.71851 59.0238 9.99669 59.0238 10.321V14H57.5891V13.2436H57.5465C57.4589 13.4141 57.3417 13.5644 57.195 13.6946C57.0482 13.8224 56.8718 13.9231 56.6658 13.9964C56.4599 14.0675 56.2219 14.103 55.9521 14.103ZM56.3853 13.0589C56.6078 13.0589 56.8043 13.0152 56.9748 12.9276C57.1452 12.8376 57.279 12.7169 57.3761 12.5653C57.4731 12.4138 57.5217 12.2422 57.5217 12.0504V11.4716C57.4743 11.5024 57.4092 11.5308 57.3263 11.5568C57.2459 11.5805 57.1547 11.603 57.0529 11.6243C56.9511 11.6432 56.8493 11.661 56.7475 11.6776C56.6457 11.6918 56.5534 11.7048 56.4705 11.7166C56.293 11.7427 56.1379 11.7841 56.0053 11.8409C55.8728 11.8977 55.7698 11.9747 55.6964 12.0717C55.623 12.1664 55.5863 12.2848 55.5863 12.4268C55.5863 12.6328 55.6609 12.7902 55.81 12.8991C55.9615 13.0057 56.1533 13.0589 56.3853 13.0589ZM60.1974 14V8.54545H61.6641V9.49716H61.7209C61.8203 9.15862 61.9872 8.90294 62.2216 8.73011C62.456 8.55492 62.7259 8.46733 63.0312 8.46733C63.107 8.46733 63.1887 8.47206 63.2763 8.48153C63.3639 8.491 63.4408 8.50402 63.5071 8.5206V9.86293C63.4361 9.84162 63.3378 9.82268 63.2124 9.80611C63.0869 9.78954 62.9721 9.78125 62.8679 9.78125C62.6454 9.78125 62.4465 9.82978 62.2713 9.92685C62.0985 10.0215 61.9612 10.1541 61.8594 10.3246C61.7599 10.495 61.7102 10.6915 61.7102 10.9141V14H60.1974Z" fill="#FF5A1F"/>
</svg>
