<svg width="52" height="52" viewBox="0 0 52 52" fill="none" xmlns="http://www.w3.org/2000/svg">
<g filter="url(#filter0_d_2_855)">
<rect x="10" y="5" width="32" height="32" rx="16" fill="white"/>
<path d="M29.7734 20.0533L24.12 14.4C23.9961 14.275 23.8486 14.1758 23.6861 14.1082C23.5237 14.0405 23.3494 14.0056 23.1734 14.0056C22.9974 14.0056 22.8231 14.0405 22.6606 14.1082C22.4981 14.1758 22.3507 14.275 22.2267 14.4C21.9784 14.6498 21.839 14.9878 21.839 15.34C21.839 15.6923 21.9784 16.0302 22.2267 16.28L26.9467 21L22.2267 25.72C21.9784 25.9698 21.839 26.3078 21.839 26.66C21.839 27.0123 21.9784 27.3502 22.2267 27.6C22.3513 27.7236 22.4991 27.8214 22.6615 27.8877C22.824 27.9541 22.9979 27.9877 23.1734 27.9867C23.3489 27.9877 23.5228 27.9541 23.6853 27.8877C23.8477 27.8214 23.9955 27.7236 24.12 27.6L29.7734 21.9467C29.8984 21.8227 29.9975 21.6753 30.0652 21.5128C30.1329 21.3503 30.1678 21.176 30.1678 21C30.1678 20.824 30.1329 20.6497 30.0652 20.4872C29.9975 20.3248 29.8984 20.1773 29.7734 20.0533Z" fill="black"/>
</g>
<defs>
<filter id="filter0_d_2_855" x="0" y="0" width="52" height="52" filterUnits="userSpaceOnUse" color-interpolation-filters="sRGB">
<feFlood flood-opacity="0" result="BackgroundImageFix"/>
<feColorMatrix in="SourceAlpha" type="matrix" values="0 0 0 0 0 0 0 0 0 0 0 0 0 0 0 0 0 0 127 0" result="hardAlpha"/>
<feOffset dy="5"/>
<feGaussianBlur stdDeviation="5"/>
<feComposite in2="hardAlpha" operator="out"/>
<feColorMatrix type="matrix" values="0 0 0 0 1 0 0 0 0 0.309804 0 0 0 0 0.298039 0 0 0 0.15 0"/>
<feBlend mode="normal" in2="BackgroundImageFix" result="effect1_dropShadow_2_855"/>
<feBlend mode="normal" in="SourceGraphic" in2="effect1_dropShadow_2_855" result="shape"/>
</filter>
</defs>
</svg>
