<svg width="80" height="80" viewBox="0 0 80 80" fill="none" xmlns="http://www.w3.org/2000/svg">
<g filter="url(#filter0_d_2_193)">
<rect x="8.5" y="6.5" width="63" height="63" rx="31.5" stroke="#FF4F4C" shape-rendering="crispEdges"/>
</g>
<path d="M43 38.4738C43 37.8302 43.4759 37.2858 44.1137 37.1997L51.5423 36.1968C52.3137 36.0926 53 36.6925 53 37.4709V49.7143C53 50.4244 52.4244 51 51.7143 51H44.2857C43.5756 51 43 50.4244 43 49.7143L43 38.4738Z" fill="#EF9C89"/>
<path d="M30 24.6846C30 24.1036 30.3897 23.5948 30.9506 23.4433L38.3791 21.4376C39.1963 21.217 40 21.8325 40 22.6789V49.7143C40 50.4244 39.4244 51 38.7143 51H31.2857C30.5756 51 30 50.4244 30 49.7143L30 24.6846Z" fill="#EF9C89"/>
<path d="M47.1621 41.5309C47.1621 40.8736 47.6579 40.3221 48.3115 40.2524L55.5914 39.4759C56.3511 39.3949 57.0135 39.9903 57.0135 40.7544V49.7142C57.0135 50.4243 56.4378 50.9999 55.7277 50.9999H48.4478C47.7377 50.9999 47.1621 50.4243 47.1621 49.7142L47.1621 41.5309Z" fill="#F7B296"/>
<path d="M36.5811 26.7311C36.5811 26.1025 37.0355 25.5662 37.6554 25.4628L44.9354 24.2495C45.719 24.1189 46.4324 24.7232 46.4324 25.5177V49.7143C46.4324 50.4244 45.8568 51 45.1467 51H37.8668C37.1567 51 36.5811 50.4244 36.5811 49.7143V26.7311Z" fill="#FED6C6"/>
<path d="M26 35.4878C26 34.8593 26.4544 34.3229 27.0743 34.2195L34.3543 33.0062C35.138 32.8756 35.8514 33.48 35.8514 34.2744V49.7142C35.8514 50.4243 35.2757 51 34.5656 51H27.2857C26.5756 51 26 50.4243 26 49.7142L26 35.4878Z" fill="#F7BAA2"/>
<defs>
<filter id="filter0_d_2_193" x="0" y="0" width="80" height="80" filterUnits="userSpaceOnUse" color-interpolation-filters="sRGB">
<feFlood flood-opacity="0" result="BackgroundImageFix"/>
<feColorMatrix in="SourceAlpha" type="matrix" values="0 0 0 0 0 0 0 0 0 0 0 0 0 0 0 0 0 0 127 0" result="hardAlpha"/>
<feOffset dy="2"/>
<feGaussianBlur stdDeviation="4"/>
<feComposite in2="hardAlpha" operator="out"/>
<feColorMatrix type="matrix" values="0 0 0 0 1 0 0 0 0 0.352941 0 0 0 0 0.121569 0 0 0 1 0"/>
<feBlend mode="normal" in2="BackgroundImageFix" result="effect1_dropShadow_2_193"/>
<feBlend mode="normal" in="SourceGraphic" in2="effect1_dropShadow_2_193" result="shape"/>
</filter>
</defs>
</svg>
